<svg xmlns="http://www.w3.org/2000/svg" xmlns:xlink="http://www.w3.org/1999/xlink" width="1080" zoomAndPan="magnify" viewBox="0 0 810 809.999993" height="1080" preserveAspectRatio="xMidYMid meet" version="1.0"><defs><clipPath id="id1"><path d="M 226.847656 69 L 579 69 L 579 741 L 226.847656 741 Z M 226.847656 69 " clip-rule="nonzero"/></clipPath></defs><rect x="-81" width="972" fill="#ffffff" y="-80.999999" height="971.999992" fill-opacity="1"/><rect x="-81" width="972" fill="#ffffff" y="-80.999999" height="971.999992" fill-opacity="1"/><rect x="-81" width="972" fill="#ffffff" y="-80.999999" height="971.999992" fill-opacity="1"/><g clip-path="url(#id1)"><path fill="#a6a6a6" d="M 244.484375 740.046875 C 243.613281 740.046875 242.75 739.984375 241.890625 739.859375 C 241.03125 739.730469 240.1875 739.542969 239.355469 739.292969 C 238.523438 739.042969 237.714844 738.730469 236.929688 738.359375 C 236.144531 737.992188 235.390625 737.566406 234.667969 737.082031 C 233.945312 736.601562 233.261719 736.070312 232.617188 735.484375 C 231.976562 734.902344 231.378906 734.277344 230.824219 733.605469 C 230.273438 732.933594 229.777344 732.226562 229.328125 731.484375 C 228.882812 730.738281 228.492188 729.964844 228.160156 729.164062 C 227.828125 728.359375 227.554688 727.539062 227.34375 726.695312 C 227.132812 725.851562 226.984375 725 226.902344 724.136719 C 226.816406 723.269531 226.792969 722.40625 226.835938 721.539062 C 226.878906 720.671875 226.988281 719.8125 227.15625 718.960938 C 227.324219 718.109375 227.558594 717.273438 227.851562 716.457031 C 228.144531 715.636719 228.496094 714.847656 228.90625 714.082031 C 229.316406 713.316406 229.78125 712.585938 230.296875 711.886719 C 230.816406 711.191406 231.382812 710.535156 231.996094 709.921875 L 536.328125 404.953125 L 231.996094 99.953125 C 231.578125 99.546875 231.179688 99.121094 230.800781 98.675781 C 230.425781 98.226562 230.070312 97.765625 229.738281 97.285156 C 229.410156 96.800781 229.101562 96.304688 228.820312 95.792969 C 228.539062 95.285156 228.28125 94.757812 228.054688 94.222656 C 227.824219 93.683594 227.621094 93.136719 227.445312 92.582031 C 227.269531 92.023438 227.121094 91.460938 227.003906 90.886719 C 226.882812 90.316406 226.792969 89.742188 226.730469 89.160156 C 226.667969 88.578125 226.636719 87.996094 226.632812 87.414062 C 226.628906 86.828125 226.652344 86.246094 226.707031 85.664062 C 226.761719 85.082031 226.84375 84.503906 226.953125 83.933594 C 227.0625 83.359375 227.203125 82.792969 227.371094 82.234375 C 227.539062 81.671875 227.734375 81.125 227.953125 80.582031 C 228.175781 80.042969 228.425781 79.515625 228.699219 79 C 228.972656 78.484375 229.273438 77.984375 229.597656 77.496094 C 229.921875 77.011719 230.269531 76.542969 230.636719 76.09375 C 231.007812 75.640625 231.402344 75.207031 231.816406 74.796875 C 232.226562 74.382812 232.660156 73.992188 233.113281 73.625 C 233.566406 73.253906 234.035156 72.910156 234.523438 72.585938 C 235.007812 72.261719 235.511719 71.964844 236.027344 71.691406 C 236.542969 71.417969 237.070312 71.171875 237.613281 70.953125 C 238.152344 70.730469 238.703125 70.539062 239.261719 70.375 C 239.824219 70.207031 240.390625 70.070312 240.964844 69.960938 C 241.539062 69.851562 242.117188 69.769531 242.695312 69.71875 C 243.277344 69.667969 243.863281 69.644531 244.445312 69.648438 C 245.03125 69.65625 245.613281 69.691406 246.191406 69.753906 C 246.773438 69.816406 247.347656 69.910156 247.917969 70.03125 C 248.492188 70.152344 249.054688 70.300781 249.613281 70.476562 C 250.167969 70.65625 250.714844 70.859375 251.25 71.089844 C 251.785156 71.320312 252.308594 71.578125 252.820312 71.863281 C 253.332031 72.144531 253.828125 72.453125 254.308594 72.785156 C 254.789062 73.117188 255.25 73.472656 255.695312 73.851562 C 256.140625 74.230469 256.566406 74.628906 256.96875 75.050781 L 573.714844 392.503906 C 574.121094 392.910156 574.507812 393.339844 574.871094 393.785156 C 575.238281 394.230469 575.582031 394.695312 575.898438 395.175781 C 576.21875 395.652344 576.515625 396.148438 576.785156 396.65625 C 577.058594 397.164062 577.304688 397.6875 577.523438 398.21875 C 577.742188 398.75 577.9375 399.292969 578.105469 399.84375 C 578.269531 400.398438 578.410156 400.957031 578.523438 401.519531 C 578.636719 402.085938 578.71875 402.65625 578.777344 403.230469 C 578.832031 403.804688 578.859375 404.378906 578.859375 404.953125 C 578.859375 405.53125 578.832031 406.105469 578.777344 406.679688 C 578.71875 407.253906 578.636719 407.824219 578.523438 408.390625 C 578.410156 408.953125 578.269531 409.511719 578.105469 410.066406 C 577.9375 410.617188 577.742188 411.160156 577.523438 411.691406 C 577.304688 412.222656 577.058594 412.746094 576.785156 413.253906 C 576.515625 413.761719 576.21875 414.257812 575.898438 414.734375 C 575.582031 415.214844 575.238281 415.679688 574.871094 416.125 C 574.507812 416.570312 574.121094 416.996094 573.714844 417.40625 L 256.96875 734.859375 C 255.316406 736.519531 253.40625 737.800781 251.242188 738.699219 C 249.078125 739.597656 246.824219 740.046875 244.484375 740.046875 Z M 244.484375 740.046875 " fill-opacity="1" fill-rule="nonzero"/></g></svg>